<?xml version="1.0" encoding="iso-8859-1"?>
<!-- Generator: Adobe Illustrator 18.1.1, SVG Export Plug-In . SVG Version: 6.00 Build 0)  -->
<svg version="1.1" id="Capa_1" xmlns="http://www.w3.org/2000/svg" xmlns:xlink="http://www.w3.org/1999/xlink" x="0px" y="0px"
	 viewBox="0 0 591.804 591.804" style="enable-background:new 0 0 591.804 591.804;" xml:space="preserve">
<g>
	<g>
		<path d="M214.404,513.57c-21.012-1.428-61.2-6.528-94.248-25.296c-25.5-14.484-57.528-39.372-64.056-61.608
			c-0.816-2.652-3.672-4.284-6.324-3.468c-2.652,0.816-4.284,3.672-3.468,6.324c7.344,25.092,40.188,51.408,68.748,67.524
			c34.884,19.788,76.704,25.296,98.532,26.724c0.204,0,0.204,0,0.408,0c2.652,0,4.896-2.04,5.1-4.692
			C219.3,516.222,217.056,513.774,214.404,513.57z"/>
		<path d="M558.144,234.702c21.828-21.624,33.456-45.9,33.456-71.4c0-42.228-31.62-81.396-89.352-110.16
			c-55.284-27.54-128.52-42.84-206.448-42.84s-151.164,15.3-206.448,42.84C31.62,81.906,0,121.074,0,163.302
			c0,25.5,11.628,49.98,33.66,71.604C11.832,256.53,0.204,281.214,0,306.102c0,21.624,8.364,42.432,24.276,61.608
			c-0.408,0.408-0.816,0.612-1.02,1.02C7.956,387.702,0,407.694,0,428.502c0,42.228,31.62,81.396,89.352,110.16
			c55.284,27.744,128.724,42.84,206.448,42.84c77.928,0,151.164-15.3,206.448-42.84c57.528-28.764,89.352-67.932,89.352-110.16
			c0-20.808-7.752-40.8-23.052-59.772c-0.408-0.408-0.816-0.816-1.02-1.224c15.912-18.972,24.276-39.78,24.276-61.404
			C591.6,281.214,579.972,256.53,558.144,234.702z M20.4,163.302c0-34.068,27.744-66.708,77.928-91.8
			c52.632-26.316,122.808-40.8,197.472-40.8s144.84,14.484,197.472,40.8c50.184,25.092,77.928,57.732,77.928,91.8
			s-27.744,66.708-77.928,91.8c-52.632,26.316-122.604,40.8-197.472,40.8c-74.664,0-144.84-14.484-197.472-40.8
			C48.144,230.01,20.4,197.37,20.4,163.302z M48.348,249.186c0.204-0.204,0.408-0.612,0.612-0.816
			c11.628,8.976,25.092,17.34,40.392,25.092c55.284,27.744,128.724,42.84,206.448,42.84c77.928,0,151.164-15.3,206.448-42.84
			c15.504-7.752,28.968-16.116,40.596-25.296c0.204,0.204,0.408,0.612,0.612,0.816c18.156,17.952,27.744,37.74,27.744,57.12
			c0,34.068-27.744,66.708-77.928,91.8c-52.632,26.316-122.604,40.8-197.472,40.8c-74.664,0-144.84-14.484-197.472-40.8
			C48.144,372.81,20.4,340.17,20.4,306.102C20.4,286.722,30.192,266.934,48.348,249.186z M571.2,428.502
			c0,34.068-27.744,66.708-77.928,91.8c-52.632,26.316-122.604,40.8-197.472,40.8c-74.664,0-144.84-14.484-197.472-40.8
			C48.144,495.21,20.4,462.57,20.4,428.502c0-15.708,6.12-31.212,17.952-46.308c13.668,12.444,30.6,23.664,50.796,33.864
			c55.284,27.744,128.724,42.84,206.448,42.84c77.928,0,151.164-15.3,206.448-42.84c20.196-10.2,37.332-21.624,50.796-33.864
			C565.08,397.29,571.2,412.794,571.2,428.502z"/>
		<path d="M115.056,374.646c34.884,19.788,76.704,25.296,98.532,26.724c0.204,0,0.204,0,0.408,0c2.652,0,4.896-2.04,5.1-4.692
			c0.204-2.856-2.04-5.304-4.692-5.508c-21.012-1.428-61.2-6.528-94.248-25.296c-25.5-14.484-57.528-39.372-64.056-61.608
			c-0.816-2.652-3.672-4.284-6.324-3.468c-2.652,0.816-4.284,3.672-3.468,6.324C53.652,332.214,86.7,358.53,115.056,374.646z"/>
	</g>
</g>
<g>
</g>
<g>
</g>
<g>
</g>
<g>
</g>
<g>
</g>
<g>
</g>
<g>
</g>
<g>
</g>
<g>
</g>
<g>
</g>
<g>
</g>
<g>
</g>
<g>
</g>
<g>
</g>
<g>
</g>
</svg>
