<?xml version="1.0" encoding="iso-8859-1"?>
<!-- Generator: Adobe Illustrator 18.1.1, SVG Export Plug-In . SVG Version: 6.00 Build 0)  -->
<svg version="1.1" id="Capa_1" xmlns="http://www.w3.org/2000/svg" xmlns:xlink="http://www.w3.org/1999/xlink" x="0px" y="0px"
	 viewBox="0 0 591.6 591.6" style="enable-background:new 0 0 591.6 591.6;" xml:space="preserve">
<g>
	<g>
		<path d="M541.008,213.894c-20.4-20.4-44.88-35.088-71.808-43.248c-0.612-45.492-18.564-87.924-50.592-119.952
			C385.764,18.054,342.312,0.102,295.8,0.102s-89.964,17.952-122.808,50.592c-32.028,32.028-49.776,74.664-50.592,119.952
			c-26.928,8.16-51.408,22.848-71.808,43.248C17.952,246.534,0,290.19,0,336.702s17.952,89.964,50.592,122.808
			c32.64,32.64,76.296,50.592,122.808,50.592c5.712,0,10.2-4.488,10.2-10.2s-4.488-10.2-10.2-10.2c-84.456,0-153-68.544-153-153
			s68.544-153,153-153s153,68.544,153,153c0,5.712,4.488,10.2,10.2,10.2s10.2-4.488,10.2-10.2c0-95.676-77.724-173.4-173.4-173.4
			c-1.836,0-3.876,0-5.712,0.204C176.664,95.574,234.6,43.962,303.96,43.962c2.856,0,5.1-2.244,5.1-5.1s-2.244-5.1-5.1-5.1
			c-75.276,0-137.904,56.508-146.676,130.356c-4.896,0.408-9.588,1.02-14.28,1.836C146.88,84.966,213.996,20.502,295.8,20.502
			S444.72,85.17,448.596,165.954c-9.996-1.836-19.992-2.652-30.396-2.652c-5.712,0-10.2,4.488-10.2,10.2s4.488,10.2,10.2,10.2
			c84.456,0,153,68.544,153,153s-68.544,153-153,153c-5.712,0-10.2,4.488-10.2,10.2s4.488,10.2,10.2,10.2
			c46.512,0,89.964-17.952,122.808-50.592c32.64-32.64,50.592-76.296,50.592-122.808S573.648,246.534,541.008,213.894z"/>
		<path d="M181.56,196.962c-81.396,0-147.696,66.3-147.696,147.696c0,2.856,2.244,5.1,5.1,5.1s5.1-2.244,5.1-5.1
			c0-75.888,61.812-137.496,137.496-137.496c2.856,0,5.1-2.244,5.1-5.1S184.416,196.962,181.56,196.962z"/>
		<path d="M351.288,532.134L306,562.326V397.902c0-5.712-4.488-10.2-10.2-10.2s-10.2,4.488-10.2,10.2V562.53l-45.288-30.192
			c-4.692-3.06-11.016-1.836-14.076,2.856c-3.06,4.692-1.836,11.016,2.856,14.076l60.996,40.596l0,0l0,0l0,0l0,0h0.204
			c0.408,0.204,0.612,0.408,1.02,0.612c0.204,0,0.204,0.204,0.408,0.204c0,0,0.204,0,0.204,0.204c0.204,0,0.408,0.204,0.612,0.204
			s0.408,0.204,0.612,0.204s0.408,0,0.408,0.204c0.204,0,0.204,0,0.408,0c0.204,0,0.408,0,0.408,0c0.408,0,0.816,0,1.224,0l0,0l0,0
			l0,0l0,0c0.408,0,0.816,0,1.224,0c0.204,0,0.408,0,0.408,0c0.204,0,0.204,0,0.408,0c0.204,0,0.408,0,0.408-0.204
			c0.204,0,0.408-0.204,0.612-0.204s0.408-0.204,0.612-0.204c0,0,0.204,0,0.204-0.204c0.204,0,0.204-0.204,0.408-0.204
			c0.408-0.204,0.612-0.408,1.02-0.612h0.204l0,0l0,0l0,0l0,0L362.1,549.27c4.692-3.06,5.916-9.384,2.856-14.076
			C361.896,530.502,355.98,529.074,351.288,532.134z"/>
	</g>
</g>
<g>
</g>
<g>
</g>
<g>
</g>
<g>
</g>
<g>
</g>
<g>
</g>
<g>
</g>
<g>
</g>
<g>
</g>
<g>
</g>
<g>
</g>
<g>
</g>
<g>
</g>
<g>
</g>
<g>
</g>
</svg>
