<?xml version="1.0" encoding="iso-8859-1"?>
<!-- Generator: Adobe Illustrator 18.1.1, SVG Export Plug-In . SVG Version: 6.00 Build 0)  -->
<svg version="1.1" id="Capa_1" xmlns="http://www.w3.org/2000/svg" xmlns:xlink="http://www.w3.org/1999/xlink" x="0px" y="0px"
	 viewBox="0 0 591.753 591.753" style="enable-background:new 0 0 591.753 591.753;" xml:space="preserve">
<g>
	<g>
		<path d="M586.576,82.977l-142.8-81.6c-3.06-1.836-6.936-1.836-10.2,0l-137.7,78.54l-137.7-78.54c-3.06-1.836-6.936-1.836-10.2,0
			l-142.8,81.6c-3.06,1.632-5.1,5.1-5.1,8.772v489.6c0,3.672,1.836,6.936,5.1,8.772c3.06,1.836,6.936,1.836,10.2,0l137.7-78.54
			l137.7,78.744c3.06,1.836,6.936,1.836,10.2,0l137.7-78.744l137.7,78.744c1.632,0.816,3.264,1.428,5.1,1.428s3.468-0.408,5.1-1.428
			c3.06-1.836,5.1-5.1,5.1-8.772V91.749C591.677,88.077,589.636,84.609,586.576,82.977z M163.277,27.693l122.4,69.972v466.14
			l-122.4-69.972V27.693z M306.077,97.665l122.4-69.972v466.14l-122.4,69.972V97.665z M20.477,97.665l122.4-69.972v466.14
			l-122.4,69.972V97.665z M571.276,563.805l-122.4-69.972V27.693l122.4,69.972V563.805z"/>
		<path d="M137.165,56.661c-1.428-2.448-4.488-3.264-6.936-1.836l-93.84,53.04c-1.632,0.816-2.652,2.652-2.652,4.488v163.2
			c0,2.856,2.244,5.1,5.1,5.1s5.1-2.244,5.1-5.1V115.209l91.188-51.612C137.573,62.169,138.593,59.109,137.165,56.661z"/>
		<path d="M422.764,56.661c-1.428-2.448-4.488-3.264-6.936-1.836l-93.84,53.04c-1.632,0.816-2.652,2.652-2.652,4.488v163.2
			c0,2.856,2.244,5.1,5.1,5.1s5.1-2.244,5.1-5.1V115.209l91.188-51.612C423.172,62.169,424.192,59.109,422.764,56.661z"/>
	</g>
</g>
<g>
</g>
<g>
</g>
<g>
</g>
<g>
</g>
<g>
</g>
<g>
</g>
<g>
</g>
<g>
</g>
<g>
</g>
<g>
</g>
<g>
</g>
<g>
</g>
<g>
</g>
<g>
</g>
<g>
</g>
</svg>
