<?xml version="1.0" encoding="iso-8859-1"?>
<!-- Generator: Adobe Illustrator 18.1.1, SVG Export Plug-In . SVG Version: 6.00 Build 0)  -->
<svg version="1.1" id="Capa_1" xmlns="http://www.w3.org/2000/svg" xmlns:xlink="http://www.w3.org/1999/xlink" x="0px" y="0px"
	 viewBox="0 0 591.6 591.6" style="enable-background:new 0 0 591.6 591.6;" xml:space="preserve">
<g>
	<g>
		<path d="M102,244.8c-28.152,0-51,22.848-51,51c0,2.856,2.244,5.1,5.1,5.1c2.856,0,5.1-2.244,5.1-5.1c0-22.44,18.36-40.8,40.8-40.8
			c2.856,0,5.1-2.244,5.1-5.1S104.856,244.8,102,244.8z"/>
		<path d="M489.6,387.6c-36.312,0-68.136,18.972-86.292,47.532c-0.204,0-0.204-0.204-0.408-0.204L197.676,332.316
			c-0.204,0-0.204-0.204-0.408-0.204c4.284-11.22,6.732-23.46,6.732-36.312c0-12.852-2.448-25.092-6.732-36.312
			c0.204,0,0.204-0.204,0.408-0.204L402.9,156.672c0.204,0,0.204-0.204,0.408-0.204C421.464,185.028,453.288,204,489.6,204
			c56.304,0,102-45.696,102-102S545.904,0,489.6,0s-102,45.696-102,102c0,12.852,2.448,25.092,6.732,36.312
			c-0.204,0-0.204,0-0.408,0.204L188.7,241.128c-0.204,0-0.204,0.204-0.408,0.204C170.136,212.772,138.312,193.8,102,193.8
			c-56.304,0-102,45.696-102,102s45.696,102,102,102c36.312,0,68.136-18.972,86.292-47.532c0.204,0,0.204,0.204,0.408,0.204
			l205.224,102.612c0.204,0,0.204,0.204,0.408,0.204c-4.284,11.22-6.732,23.46-6.732,36.312c0,56.304,45.696,102,102,102
			s102-45.696,102-102S545.904,387.6,489.6,387.6z M489.6,20.4c45.084,0,81.6,36.516,81.6,81.6s-36.516,81.6-81.6,81.6
			c-45.084,0-81.6-36.516-81.6-81.6S444.516,20.4,489.6,20.4z M102,377.4c-45.084,0-81.6-36.516-81.6-81.6s36.516-81.6,81.6-81.6
			s81.6,36.516,81.6,81.6S147.084,377.4,102,377.4z M489.6,571.2c-45.084,0-81.6-36.516-81.6-81.6c0-45.084,36.516-81.6,81.6-81.6
			c45.084,0,81.6,36.516,81.6,81.6C571.2,534.684,534.684,571.2,489.6,571.2z"/>
		<path d="M489.6,438.6c-28.152,0-51,22.848-51,51c0,2.856,2.244,5.1,5.1,5.1s5.1-2.244,5.1-5.1c0-22.44,18.36-40.8,40.8-40.8
			c2.856,0,5.1-2.244,5.1-5.1S492.456,438.6,489.6,438.6z"/>
		<path d="M443.7,107.1c2.856,0,5.1-2.244,5.1-5.1c0-22.44,18.36-40.8,40.8-40.8c2.856,0,5.1-2.244,5.1-5.1s-2.244-5.1-5.1-5.1
			c-28.152,0-51,22.848-51,51C438.6,104.856,440.844,107.1,443.7,107.1z"/>
	</g>
</g>
<g>
</g>
<g>
</g>
<g>
</g>
<g>
</g>
<g>
</g>
<g>
</g>
<g>
</g>
<g>
</g>
<g>
</g>
<g>
</g>
<g>
</g>
<g>
</g>
<g>
</g>
<g>
</g>
<g>
</g>
</svg>
