<?xml version="1.0" encoding="iso-8859-1"?>
<!-- Generator: Adobe Illustrator 18.1.1, SVG Export Plug-In . SVG Version: 6.00 Build 0)  -->
<svg version="1.1" id="Capa_1" xmlns="http://www.w3.org/2000/svg" xmlns:xlink="http://www.w3.org/1999/xlink" x="0px" y="0px"
	 viewBox="0 0 591.6 591.6" style="enable-background:new 0 0 591.6 591.6;" xml:space="preserve">
<g>
	<g>
		<path d="M541.008,213.792c-20.4-20.4-44.88-35.088-71.808-43.248c-0.612-45.492-18.564-87.924-50.592-119.952
			C385.764,17.952,342.312,0,295.8,0s-89.964,17.952-122.808,50.592c-32.028,32.028-49.776,74.664-50.592,119.952
			c-26.928,8.16-51.408,22.848-71.808,43.248C17.952,246.432,0,290.088,0,336.6s17.952,89.964,50.592,122.808
			C83.232,492.048,126.888,510,173.4,510c5.712,0,10.2-4.488,10.2-10.2s-4.488-10.2-10.2-10.2c-84.456,0-153-68.544-153-153
			s68.544-153,153-153s153,68.544,153,153c0,5.712,4.488,10.2,10.2,10.2s10.2-4.488,10.2-10.2c0-95.676-77.724-173.4-173.4-173.4
			c-1.836,0-3.876,0-5.712,0.204C176.664,95.472,234.6,43.86,303.96,43.86c2.856,0,5.1-2.244,5.1-5.1s-2.244-5.1-5.1-5.1
			c-75.276,0-137.904,56.508-146.676,130.356c-4.896,0.408-9.588,1.02-14.28,1.836C146.88,84.864,213.996,20.4,295.8,20.4
			s148.92,64.668,152.796,145.452c-9.996-1.836-19.992-2.652-30.396-2.652c-5.712,0-10.2,4.488-10.2,10.2s4.488,10.2,10.2,10.2
			c84.456,0,153,68.544,153,153s-68.544,153-153,153c-5.712,0-10.2,4.488-10.2,10.2s4.488,10.2,10.2,10.2
			c46.512,0,89.964-17.952,122.808-50.592c32.64-32.64,50.592-76.296,50.592-122.808S573.648,246.432,541.008,213.792z"/>
		<path d="M181.56,196.86c-81.396,0-147.696,66.3-147.696,147.696c0,2.856,2.244,5.1,5.1,5.1s5.1-2.244,5.1-5.1
			c0-75.888,61.812-137.496,137.496-137.496c2.856,0,5.1-2.244,5.1-5.1S184.416,196.86,181.56,196.86z"/>
		<path d="M362.712,430.032l-61.2-40.8l0,0l0,0l0,0c-0.204-0.204-0.612-0.204-0.816-0.408c-0.204-0.204-0.612-0.408-1.02-0.408l0,0
			c-0.204-0.204-0.612-0.204-0.816-0.204c0,0,0,0-0.204,0s-0.612-0.204-0.816-0.204l0,0c-0.408,0-0.612,0-1.02-0.204
			c-0.408,0-0.612,0-1.02,0l0,0l0,0c-0.204,0-0.612,0-0.816,0c-0.408,0-0.612,0-1.02,0.204l0,0c-0.204,0-0.612,0.204-0.816,0.204
			h-0.204c-0.204,0-0.612,0.204-0.816,0.204l0,0c-0.204,0.204-0.612,0.204-0.816,0.408c-0.204,0.204-0.612,0.204-0.816,0.408l0,0
			l0,0l0,0l-61.2,40.8c-4.692,3.06-5.916,9.384-2.856,14.076c2.04,2.856,5.1,4.488,8.568,4.488c2.04,0,3.876-0.612,5.712-1.632
			l45.288-30.192V581.4c0,5.712,4.488,10.2,10.2,10.2s10.2-4.488,10.2-10.2V416.772l45.288,30.192
			c1.836,1.224,3.672,1.632,5.712,1.632c3.264,0,6.528-1.632,8.568-4.488C368.628,439.416,367.404,433.092,362.712,430.032z"/>
	</g>
</g>
<g>
</g>
<g>
</g>
<g>
</g>
<g>
</g>
<g>
</g>
<g>
</g>
<g>
</g>
<g>
</g>
<g>
</g>
<g>
</g>
<g>
</g>
<g>
</g>
<g>
</g>
<g>
</g>
<g>
</g>
</svg>
